<svg width="153" height="100" viewBox="0 0 153 100" fill="none" xmlns="http://www.w3.org/2000/svg">
<rect x="1" width="150" height="100" rx="50" fill="#13108D"/>
<g filter="url(#filter0_dd_1_5)">
<path d="M7.36222 44.5455H12.5866L15.2287 55.3523H15.4332L21.6548 44.5455H26.8793L23.9815 62H19.8736L21.6548 51.2784H21.5099L15.5611 61.8892H12.9446L10.5241 51.2188H10.3793L8.57244 62H4.46449L7.36222 44.5455ZM26.6129 62L29.5107 44.5455H41.6811L41.1016 47.9716H33.1499L32.5703 51.5511H39.8999L39.3203 54.9858H31.9908L31.4112 58.5739H39.3629L38.7834 62H26.6129ZM47.9709 62H41.4254L44.3232 44.5455H50.6726C52.4453 44.5455 53.9226 44.9062 55.1044 45.6278C56.2919 46.3437 57.13 47.3722 57.6186 48.7131C58.1129 50.0483 58.2067 51.6392 57.8999 53.4858C57.6044 55.2699 57.0107 56.7983 56.1186 58.071C55.2322 59.3437 54.0959 60.3182 52.7095 60.9943C51.3232 61.6648 49.7436 62 47.9709 62ZM46.2322 58.4034H48.2351C49.2124 58.4034 50.076 58.2273 50.826 57.875C51.5817 57.517 52.2067 56.946 52.701 56.1619C53.1953 55.3722 53.5476 54.3352 53.7578 53.0511C53.9624 51.8239 53.9538 50.8551 53.7322 50.1449C53.5163 49.429 53.0959 48.9176 52.4709 48.6108C51.8516 48.2983 51.0419 48.142 50.0419 48.142H47.9453L46.2322 58.4034ZM66.0732 44.5455L63.1754 62H58.9567L61.8544 44.5455H66.0732ZM77.2699 49.8125C77.3153 49.1705 77.1449 48.6733 76.7585 48.321C76.3778 47.9688 75.7756 47.7926 74.9517 47.7926C74.4063 47.7926 73.9403 47.8636 73.554 48.0057C73.1676 48.142 72.8636 48.3352 72.642 48.5852C72.4205 48.8295 72.2813 49.1136 72.2244 49.4375C72.1733 49.6932 72.1875 49.9205 72.267 50.1193C72.3466 50.3182 72.4858 50.4943 72.6847 50.6477C72.8892 50.8011 73.142 50.9347 73.4432 51.0483C73.75 51.1619 74.0938 51.2614 74.4744 51.3466L75.9062 51.6875C76.7358 51.875 77.4545 52.125 78.0625 52.4375C78.6761 52.7443 79.1733 53.1165 79.554 53.554C79.9347 53.9858 80.196 54.483 80.3381 55.0455C80.4801 55.608 80.4915 56.2386 80.3722 56.9375C80.1903 58.0398 79.7557 58.9858 79.0682 59.7756C78.3864 60.5653 77.4943 61.1705 76.392 61.5909C75.2955 62.0114 74.0199 62.2216 72.5653 62.2216C71.1108 62.2216 69.875 62.0028 68.858 61.5653C67.8466 61.1222 67.1136 60.4545 66.6591 59.5625C66.2045 58.6705 66.0824 57.5455 66.2926 56.1875H70.3239C70.2614 56.75 70.3324 57.2188 70.5369 57.5938C70.7472 57.9688 71.071 58.2528 71.5085 58.446C71.946 58.6392 72.4744 58.7358 73.0938 58.7358C73.6619 58.7358 74.1591 58.6591 74.5852 58.5057C75.017 58.3523 75.3608 58.1392 75.6165 57.8665C75.8778 57.5937 76.0369 57.2812 76.0938 56.929C76.1506 56.6051 76.0966 56.3239 75.9318 56.0852C75.7727 55.8466 75.5 55.6392 75.1136 55.4631C74.733 55.2869 74.233 55.1278 73.6136 54.9858L71.8665 54.5597C70.4233 54.2074 69.3295 53.6449 68.5852 52.8722C67.8466 52.0994 67.5852 51.0511 67.8011 49.7273C67.983 48.642 68.4318 47.6932 69.1477 46.8807C69.8693 46.0682 70.7813 45.4375 71.8835 44.9886C72.9915 44.5341 74.2102 44.3068 75.5398 44.3068C76.892 44.3068 78.0284 44.5369 78.9489 44.9972C79.875 45.4517 80.5426 46.0937 80.9517 46.9233C81.3665 47.7472 81.4858 48.7102 81.3097 49.8125H77.2699ZM83.4148 47.9716L83.9943 44.5455H98.7472L98.1676 47.9716H92.875L90.5568 62H86.3977L88.7159 47.9716H83.4148ZM99.5057 62H94.9716L103.759 44.5455H109.375L112.366 62H107.832L105.915 48.9432H105.778L99.5057 62ZM100.051 55.1307H109.528L108.983 58.3352H99.5057L100.051 55.1307ZM131.999 44.5455L129.101 62H125.521L120.263 51.9261H120.143L118.464 62H114.246L117.143 44.5455H120.774L125.99 54.6023H126.135L127.788 44.5455H131.999ZM133.501 47.9716L134.08 44.5455H148.833L148.254 47.9716H142.961L140.643 62H136.484L138.802 47.9716H133.501Z" fill="white"/>
<path d="M7.36222 44.5455V43.5455H6.51454L6.37572 44.3817L7.36222 44.5455ZM12.5866 44.5455L13.558 44.308L13.3716 43.5455H12.5866V44.5455ZM15.2287 55.3523L14.2573 55.5898L14.4437 56.3523H15.2287V55.3523ZM15.4332 55.3523V56.3523H16.0114L16.2999 55.8512L15.4332 55.3523ZM21.6548 44.5455V43.5455H21.0767L20.7882 44.0465L21.6548 44.5455ZM26.8793 44.5455L27.8658 44.7092L28.059 43.5455H26.8793V44.5455ZM23.9815 62V63H24.8292L24.968 62.1638L23.9815 62ZM19.8736 62L18.8871 61.8361L18.6937 63H19.8736V62ZM21.6548 51.2784L22.6413 51.4423L22.8347 50.2784H21.6548V51.2784ZM21.5099 51.2784V50.2784H20.9241L20.6377 50.7894L21.5099 51.2784ZM15.5611 61.8892V62.8892H16.1469L16.4333 62.3782L15.5611 61.8892ZM12.9446 61.8892L11.9694 62.1104L12.146 62.8892H12.9446V61.8892ZM10.5241 51.2188L11.4994 50.9975L11.3227 50.2188H10.5241V51.2188ZM10.3793 51.2188V50.2188H9.5329L9.39302 51.0535L10.3793 51.2188ZM8.57244 62V63H9.4188L9.55869 62.1653L8.57244 62ZM4.46449 62L3.47799 61.8362L3.28479 63H4.46449V62ZM7.36222 45.5455H12.5866V43.5455H7.36222V45.5455ZM11.6153 44.7829L14.2573 55.5898L16.2001 55.1148L13.558 44.308L11.6153 44.7829ZM15.2287 56.3523H15.4332V54.3523H15.2287V56.3523ZM16.2999 55.8512L22.5215 45.0444L20.7882 44.0465L14.5666 54.8533L16.2999 55.8512ZM21.6548 45.5455H26.8793V43.5455H21.6548V45.5455ZM25.8928 44.3817L22.995 61.8362L24.968 62.1638L27.8658 44.7092L25.8928 44.3817ZM23.9815 61H19.8736V63H23.9815V61ZM20.8601 62.1639L22.6413 51.4423L20.6684 51.1145L18.8871 61.8361L20.8601 62.1639ZM21.6548 50.2784H21.5099V52.2784H21.6548V50.2784ZM20.6377 50.7894L14.6888 61.4002L16.4333 62.3782L22.3822 51.7674L20.6377 50.7894ZM15.5611 60.8892H12.9446V62.8892H15.5611V60.8892ZM13.9198 61.668L11.4994 50.9975L9.54892 51.44L11.9694 62.1104L13.9198 61.668ZM10.5241 50.2188H10.3793V52.2188H10.5241V50.2188ZM9.39302 51.0535L7.5862 61.8347L9.55869 62.1653L11.3655 51.384L9.39302 51.0535ZM8.57244 61H4.46449V63H8.57244V61ZM5.45099 62.1638L8.34871 44.7092L6.37572 44.3817L3.47799 61.8362L5.45099 62.1638ZM26.6129 62L25.6264 61.8362L25.4332 63H26.6129V62ZM29.5107 44.5455V43.5455H28.663L28.5242 44.3817L29.5107 44.5455ZM41.6811 44.5455L42.6671 44.7122L42.8645 43.5455H41.6811V44.5455ZM41.1016 47.9716V48.9716H41.9466L42.0876 48.1384L41.1016 47.9716ZM33.1499 47.9716V46.9716H32.2987L32.1627 47.8118L33.1499 47.9716ZM32.5703 51.5511L31.5832 51.3913L31.3954 52.5511H32.5703V51.5511ZM39.8999 51.5511L40.8859 51.7175L41.0827 50.5511H39.8999V51.5511ZM39.3203 54.9858V55.9858H40.1657L40.3064 55.1522L39.3203 54.9858ZM31.9908 54.9858V53.9858H31.1393L31.0036 54.8263L31.9908 54.9858ZM31.4112 58.5739L30.424 58.4144L30.2367 59.5739H31.4112V58.5739ZM39.3629 58.5739L40.3489 58.7406L40.5463 57.5739H39.3629V58.5739ZM38.7834 62V63H39.6284L39.7694 62.1668L38.7834 62ZM27.5994 62.1638L30.4972 44.7092L28.5242 44.3817L25.6264 61.8362L27.5994 62.1638ZM29.5107 45.5455H41.6811V43.5455H29.5107V45.5455ZM40.6951 44.3787L40.1156 47.8048L42.0876 48.1384L42.6671 44.7122L40.6951 44.3787ZM41.1016 46.9716H33.1499V48.9716H41.1016V46.9716ZM32.1627 47.8118L31.5832 51.3913L33.5575 51.711L34.137 48.1314L32.1627 47.8118ZM32.5703 52.5511H39.8999V50.5511H32.5703V52.5511ZM38.9138 51.3848L38.3343 54.8194L40.3064 55.1522L40.8859 51.7175L38.9138 51.3848ZM39.3203 53.9858H31.9908V55.9858H39.3203V53.9858ZM31.0036 54.8263L30.424 58.4144L32.3984 58.7333L32.978 55.1452L31.0036 54.8263ZM31.4112 59.5739H39.3629V57.5739H31.4112V59.5739ZM38.3769 58.4071L37.7974 61.8332L39.7694 62.1668L40.3489 58.7406L38.3769 58.4071ZM38.7834 61H26.6129V63H38.7834V61ZM41.4254 62L40.4389 61.8362L40.2457 63H41.4254V62ZM44.3232 44.5455V43.5455H43.4755L43.3367 44.3817L44.3232 44.5455ZM55.1044 45.6278L54.5833 46.4813L54.5881 46.4842L55.1044 45.6278ZM57.6186 48.7131L56.679 49.0555L56.6808 49.0603L57.6186 48.7131ZM57.8999 53.4858L56.9134 53.3219L56.9133 53.3224L57.8999 53.4858ZM56.1186 58.071L55.2997 57.4971L55.298 57.4995L56.1186 58.071ZM52.7095 60.9943L53.1449 61.8946L53.1479 61.8931L52.7095 60.9943ZM46.2322 58.4034L45.2459 58.2387L45.0515 59.4034H46.2322V58.4034ZM50.826 57.875L51.2511 58.7801L51.2541 58.7787L50.826 57.875ZM52.701 56.1619L53.5469 56.6952L53.5487 56.6925L52.701 56.1619ZM53.7578 53.0511L52.7714 52.8867L52.771 52.8896L53.7578 53.0511ZM53.7322 50.1449L52.7748 50.4336L52.7776 50.4427L53.7322 50.1449ZM52.4709 48.6108L52.0204 49.5036L52.0302 49.5085L52.4709 48.6108ZM47.9453 48.142V47.142H47.0984L46.959 47.9774L47.9453 48.142ZM47.9709 61H41.4254V63H47.9709V61ZM42.4119 62.1638L45.3097 44.7092L43.3367 44.3817L40.4389 61.8362L42.4119 62.1638ZM44.3232 45.5455H50.6726V43.5455H44.3232V45.5455ZM50.6726 45.5455C52.3122 45.5455 53.5967 45.8789 54.5833 46.4813L55.6255 44.7744C54.2485 43.9336 52.5784 43.5455 50.6726 43.5455V45.5455ZM54.5881 46.4842C55.5738 47.0785 56.2662 47.9224 56.679 49.0554L58.5582 48.3707C57.9938 46.8219 57.01 45.609 55.6207 44.7714L54.5881 46.4842ZM56.6808 49.0603C57.0986 50.1887 57.2004 51.5945 56.9134 53.3219L58.8863 53.6497C59.213 51.6839 59.1273 49.9079 58.5564 48.3659L56.6808 49.0603ZM56.9133 53.3224C56.6383 54.9829 56.0929 56.3654 55.2997 57.4971L56.9375 58.645C57.9284 57.2311 58.5705 55.5569 58.8864 53.6492L56.9133 53.3224ZM55.298 57.4995C54.5085 58.6332 53.5034 59.4945 52.2712 60.0955L53.1479 61.8931C54.6884 61.1418 55.956 60.0543 56.9392 58.6425L55.298 57.4995ZM52.2741 60.0941C51.0427 60.6896 49.6156 61 47.9709 61V63C49.8716 63 51.6037 62.6399 53.1449 61.8946L52.2741 60.0941ZM46.2322 59.4034H48.2351V57.4034H46.2322V59.4034ZM48.2351 59.4034C49.3332 59.4034 50.3463 59.2051 51.2511 58.7801L50.4009 56.9699C49.8057 57.2494 49.0915 57.4034 48.2351 57.4034V59.4034ZM51.2541 58.7787C52.1997 58.3308 52.9627 57.6219 53.5469 56.6952L51.8551 55.6286C51.4507 56.2701 50.9637 56.7033 50.3979 56.9713L51.2541 58.7787ZM53.5487 56.6925C54.1354 55.755 54.5209 54.5795 54.7447 53.2127L52.771 52.8896C52.5743 54.091 52.2552 54.9893 51.8533 55.6314L53.5487 56.6925ZM54.7442 53.2155C54.9593 51.9248 54.9764 50.7752 54.6869 49.847L52.7776 50.4427C52.9312 50.9351 52.9654 51.7229 52.7714 52.8867L54.7442 53.2155ZM54.6897 49.8561C54.4002 48.8963 53.8058 48.1521 52.9116 47.7131L52.0302 49.5085C52.386 49.6831 52.6325 49.9616 52.7748 50.4336L54.6897 49.8561ZM52.9214 47.718C52.1145 47.3109 51.1341 47.142 50.0419 47.142V49.142C50.9497 49.142 51.5886 49.2857 52.0204 49.5036L52.9214 47.718ZM50.0419 47.142H47.9453V49.142H50.0419V47.142ZM46.959 47.9774L45.2459 58.2387L47.2186 58.5681L48.9317 48.3067L46.959 47.9774ZM66.0732 44.5455L67.0597 44.7092L67.2529 43.5455H66.0732V44.5455ZM63.1754 62V63H64.0231L64.1619 62.1638L63.1754 62ZM58.9567 62L57.9702 61.8362L57.777 63H58.9567V62ZM61.8544 44.5455V43.5455H61.0067L60.8679 44.3817L61.8544 44.5455ZM65.0867 44.3817L62.1889 61.8362L64.1619 62.1638L67.0597 44.7092L65.0867 44.3817ZM63.1754 61H58.9567V63H63.1754V61ZM59.9432 62.1638L62.8409 44.7092L60.8679 44.3817L57.9702 61.8362L59.9432 62.1638ZM61.8544 45.5455H66.0732V43.5455H61.8544V45.5455ZM77.2699 49.8125L76.2724 49.7419L76.1966 50.8125H77.2699V49.8125ZM76.7585 48.321L76.0793 49.055L76.0848 49.06L76.7585 48.321ZM73.554 48.0057L73.8868 48.9488L73.899 48.9443L73.554 48.0057ZM72.642 48.5852L73.3828 49.2571L73.3904 49.2485L72.642 48.5852ZM72.2244 49.4375L73.205 49.6336L73.2073 49.622L73.2094 49.6103L72.2244 49.4375ZM72.267 50.1193L73.1955 49.7479L73.1955 49.7479L72.267 50.1193ZM72.6847 50.6477L72.0738 51.4396L72.0847 51.4477L72.6847 50.6477ZM73.4432 51.0483L73.0901 51.9839L73.0959 51.986L73.4432 51.0483ZM74.4744 51.3466L74.7061 50.3737L74.6929 50.3707L74.4744 51.3466ZM75.9062 51.6875L75.6746 52.6604L75.6858 52.6629L75.9062 51.6875ZM78.0625 52.4375L77.6053 53.3269L77.6153 53.3319L78.0625 52.4375ZM79.554 53.554L78.7996 54.2104L78.8039 54.2153L79.554 53.554ZM80.3381 55.0455L81.3076 54.8006L81.3076 54.8006L80.3381 55.0455ZM80.3722 56.9375L79.3864 56.7692L79.3855 56.7748L80.3722 56.9375ZM79.0682 59.7756L78.3139 59.119L78.3112 59.1221L79.0682 59.7756ZM76.392 61.5909L76.0356 60.6566L76.034 60.6572L76.392 61.5909ZM68.858 61.5653L68.4566 62.4813L68.4628 62.484L68.858 61.5653ZM66.6591 59.5625L67.5501 59.1085L67.5501 59.1085L66.6591 59.5625ZM66.2926 56.1875V55.1875H65.4355L65.3044 56.0345L66.2926 56.1875ZM70.3239 56.1875L71.3177 56.2979L71.4411 55.1875H70.3239V56.1875ZM70.5369 57.5938L69.659 58.0726L69.6647 58.0828L70.5369 57.5938ZM74.5852 58.5057L74.2505 57.5634L74.2465 57.5648L74.5852 58.5057ZM75.6165 57.8665L74.8944 57.1745L74.8869 57.1825L75.6165 57.8665ZM76.0938 56.929L75.1087 56.7562L75.1065 56.7697L76.0938 56.929ZM75.9318 56.0852L75.0998 56.6399L75.1043 56.6467L75.1089 56.6534L75.9318 56.0852ZM75.1136 55.4631L74.6937 56.3706L74.6988 56.373L75.1136 55.4631ZM73.6136 54.9858L73.3767 55.9574L73.3901 55.9605L73.6136 54.9858ZM71.8665 54.5597L71.6293 55.5311L71.6295 55.5312L71.8665 54.5597ZM68.5852 52.8722L67.8623 53.5631L67.865 53.5659L68.5852 52.8722ZM67.8011 49.7273L66.8149 49.562L66.8142 49.5663L67.8011 49.7273ZM69.1477 46.8807L68.4 46.2166L68.3974 46.2196L69.1477 46.8807ZM71.8835 44.9886L72.2607 45.9148L72.2631 45.9138L71.8835 44.9886ZM78.9489 44.9972L78.5016 45.8916L78.5083 45.8949L78.9489 44.9972ZM80.9517 46.9233L80.0548 47.3656L80.0585 47.373L80.9517 46.9233ZM81.3097 49.8125V50.8125H82.1626L82.2971 49.9703L81.3097 49.8125ZM78.2674 49.8831C78.3289 49.0138 78.0967 48.1879 77.4323 47.5821L76.0848 49.06C76.193 49.1587 76.3017 49.3271 76.2724 49.7419L78.2674 49.8831ZM77.4377 47.5871C76.7896 46.9873 75.886 46.7926 74.9517 46.7926V48.7926C75.6652 48.7926 75.9661 48.9502 76.0793 49.055L77.4377 47.5871ZM74.9517 46.7926C74.3246 46.7926 73.7352 46.8736 73.2089 47.0671L73.899 48.9443C74.1455 48.8537 74.4879 48.7926 74.9517 48.7926V46.7926ZM73.2212 47.0627C72.7107 47.2429 72.2506 47.5192 71.8937 47.9219L73.3904 49.2485C73.4766 49.1512 73.6245 49.0412 73.8868 48.9487L73.2212 47.0627ZM71.9013 47.9134C71.5532 48.2972 71.329 48.7541 71.2395 49.2647L73.2094 49.6103C73.2335 49.4731 73.2877 49.3619 73.3828 49.257L71.9013 47.9134ZM71.2439 49.2414C71.163 49.6456 71.1727 50.076 71.3386 50.4907L73.1955 49.7479C73.1976 49.7532 73.1957 49.7516 73.1948 49.7373C73.1938 49.7217 73.194 49.6885 73.205 49.6336L71.2439 49.2414ZM71.3386 50.4907C71.4952 50.8823 71.7581 51.1959 72.0739 51.4395L73.2955 49.8559C73.2135 49.7927 73.198 49.754 73.1955 49.7479L71.3386 50.4907ZM72.0847 51.4477C72.3813 51.6702 72.7224 51.8451 73.0901 51.9839L73.7962 50.1127C73.5617 50.0242 73.3971 49.9321 73.2847 49.8477L72.0847 51.4477ZM73.0959 51.986C73.4518 52.1179 73.8396 52.2292 74.256 52.3224L74.6929 50.3707C74.3479 50.2935 74.0482 50.206 73.7905 50.1105L73.0959 51.986ZM74.2428 52.3194L75.6746 52.6603L76.1379 50.7147L74.7061 50.3738L74.2428 52.3194ZM75.6858 52.6629C76.4522 52.8361 77.088 53.0609 77.6053 53.3269L78.5197 51.5481C77.8211 51.1891 77.0194 50.9139 76.1267 50.7121L75.6858 52.6629ZM77.6153 53.3319C78.133 53.5908 78.5189 53.8879 78.7996 54.2104L80.3084 52.8976C79.8277 52.3451 79.2193 51.8979 78.5097 51.5431L77.6153 53.3319ZM78.8039 54.2153C79.0784 54.5267 79.2651 54.8808 79.3685 55.2903L81.3076 54.8006C81.1269 54.0851 80.7909 53.4448 80.3041 52.8927L78.8039 54.2153ZM79.3685 55.2903C79.4697 55.6912 79.4874 56.1779 79.3864 56.7692L81.3579 57.1058C81.4956 56.2994 81.4905 55.5247 81.3076 54.8006L79.3685 55.2903ZM79.3855 56.7748C79.2318 57.7068 78.8714 58.4785 78.3139 59.119L79.8224 60.4321C80.6399 59.4931 81.1489 58.3727 81.3588 57.1002L79.3855 56.7748ZM78.3112 59.1221C77.7511 59.7709 77.0037 60.2873 76.0357 60.6566L76.7484 62.5252C77.9849 62.0536 79.0216 61.3598 79.8251 60.429L78.3112 59.1221ZM76.034 60.6572C75.0754 61.0248 73.9257 61.2216 72.5653 61.2216V63.2216C74.1141 63.2216 75.5155 62.998 76.7501 62.5246L76.034 60.6572ZM72.5653 61.2216C71.2061 61.2216 70.1128 61.0165 69.2531 60.6467L68.4628 62.484C69.6372 62.9891 71.0155 63.2216 72.5653 63.2216V61.2216ZM69.2593 60.6494C68.4364 60.2888 67.8887 59.7731 67.5501 59.1085L65.7681 60.0165C66.3385 61.136 67.2568 61.9555 68.4566 62.4813L69.2593 60.6494ZM67.5501 59.1085C67.2206 58.4618 67.091 57.5666 67.2808 56.3405L65.3044 56.0345C65.0737 57.5244 65.1885 58.8791 65.7681 60.0165L67.5501 59.1085ZM66.2926 57.1875H70.3239V55.1875H66.2926V57.1875ZM69.33 56.0771C69.2521 56.7779 69.329 57.4675 69.659 58.0726L71.4148 57.1149C71.3358 56.97 71.2706 56.7221 71.3177 56.2979L69.33 56.0771ZM69.6647 58.0828C69.9927 58.6678 70.4924 59.0905 71.1046 59.3608L71.9125 57.5312C71.6496 57.4152 71.5017 57.2697 71.4092 57.1047L69.6647 58.0828ZM71.1046 59.3608C71.701 59.6241 72.3746 59.7358 73.0938 59.7358V57.7358C72.5742 57.7358 72.1911 57.6543 71.9125 57.5312L71.1046 59.3608ZM73.0938 59.7358C73.7492 59.7358 74.3655 59.6476 74.9239 59.4466L74.2465 57.5648C73.9527 57.6706 73.5746 57.7358 73.0938 57.7358V59.7358ZM74.92 59.448C75.4687 59.2531 75.9593 58.9629 76.346 58.5504L74.8869 57.1825C74.7623 57.3155 74.5654 57.4515 74.2505 57.5634L74.92 59.448ZM76.3385 58.5584C76.7316 58.1482 76.9899 57.6529 77.081 57.0882L75.1065 56.7697C75.084 56.9096 75.0241 57.0393 74.8945 57.1746L76.3385 58.5584ZM77.0787 57.1018C77.1743 56.5568 77.0891 56.0013 76.7547 55.517L75.1089 56.6534C75.1106 56.6559 75.1116 56.6576 75.1121 56.6585C75.1126 56.6594 75.1128 56.6599 75.1129 56.66C75.1129 56.6601 75.113 56.6603 75.1131 56.6606C75.1132 56.661 75.1135 56.6619 75.1138 56.6636C75.1148 56.6687 75.1193 56.6964 75.1088 56.7562L77.0787 57.1018ZM76.7639 55.5305C76.4632 55.0795 76.008 54.7718 75.5284 54.5532L74.6988 56.373C74.992 56.5066 75.0822 56.6136 75.0998 56.6399L76.7639 55.5305ZM75.5336 54.5555C75.0666 54.3395 74.4934 54.1616 73.8372 54.0111L73.3901 55.9605C73.9726 56.0941 74.3993 56.2344 74.6937 56.3706L75.5336 54.5555ZM73.8506 54.0143L72.1034 53.5881L71.6295 55.5312L73.3767 55.9573L73.8506 54.0143ZM72.1036 53.5882C70.7764 53.2642 69.8769 52.7717 69.3054 52.1784L67.865 53.5659C68.7822 54.5181 70.0702 55.1506 71.6293 55.5311L72.1036 53.5882ZM69.3081 52.1812C68.8409 51.6924 68.6085 50.9897 68.7881 49.8882L66.8142 49.5663C66.562 51.1125 66.8523 52.5065 67.8624 53.5631L69.3081 52.1812ZM68.7874 49.8925C68.9389 48.9882 69.3076 48.2119 69.898 47.5418L68.3974 46.2196C67.5561 47.1745 67.027 48.2959 66.8149 49.562L68.7874 49.8925ZM69.8954 47.5447C70.5058 46.8574 71.2866 46.3114 72.2607 45.9148L71.5064 44.0625C70.2759 44.5636 69.2328 45.2789 68.4 46.2166L69.8954 47.5447ZM72.2631 45.9138C73.238 45.5138 74.3261 45.3068 75.5398 45.3068V43.3068C74.0944 43.3068 72.745 43.5543 71.504 44.0635L72.2631 45.9138ZM75.5398 45.3068C76.7836 45.3068 77.7566 45.5191 78.5016 45.8916L79.3961 44.1027C78.3002 43.5548 77.0004 43.3068 75.5398 43.3068V45.3068ZM78.5083 45.8949C79.2603 46.264 79.7546 46.7569 80.0548 47.3656L81.8486 46.481C81.3306 45.4306 80.4897 44.6394 79.3895 44.0995L78.5083 45.8949ZM80.0585 47.373C80.3604 47.9727 80.4723 48.7153 80.3222 49.6547L82.2971 49.9703C82.4993 48.7052 82.3725 47.5216 81.8449 46.4736L80.0585 47.373ZM81.3097 48.8125H77.2699V50.8125H81.3097V48.8125ZM83.4148 47.9716L82.4288 47.8048L82.2314 48.9716H83.4148V47.9716ZM83.9943 44.5455V43.5455H83.1493L83.0083 44.3787L83.9943 44.5455ZM98.7472 44.5455L99.7332 44.7122L99.9305 43.5455H98.7472V44.5455ZM98.1676 47.9716V48.9716H99.0127L99.1536 48.1384L98.1676 47.9716ZM92.875 47.9716V46.9716H92.0267L91.8884 47.8086L92.875 47.9716ZM90.5568 62V63H91.4051L91.5434 62.163L90.5568 62ZM86.3977 62L85.4111 61.837L85.2189 63H86.3977V62ZM88.7159 47.9716L89.7025 48.1346L89.8947 46.9716H88.7159V47.9716ZM84.4008 48.1384L84.9803 44.7122L83.0083 44.3787L82.4288 47.8048L84.4008 48.1384ZM83.9943 45.5455H98.7472V43.5455H83.9943V45.5455ZM97.7612 44.3787L97.1816 47.8048L99.1536 48.1384L99.7332 44.7122L97.7612 44.3787ZM98.1676 46.9716H92.875V48.9716H98.1676V46.9716ZM91.8884 47.8086L89.5702 61.837L91.5434 62.163L93.8616 48.1346L91.8884 47.8086ZM90.5568 61H86.3977V63H90.5568V61ZM87.3843 62.163L89.7025 48.1346L87.7293 47.8086L85.4111 61.837L87.3843 62.163ZM88.7159 46.9716H83.4148V48.9716H88.7159V46.9716ZM99.5057 62V63H100.135L100.407 62.433L99.5057 62ZM94.9716 62L94.0784 61.5503L93.3486 63H94.9716V62ZM103.759 44.5455V43.5455H103.142L102.865 44.0958L103.759 44.5455ZM109.375 44.5455L110.361 44.3765L110.218 43.5455H109.375V44.5455ZM112.366 62V63H113.552L113.352 61.8311L112.366 62ZM107.832 62L106.843 62.1453L106.969 63H107.832V62ZM105.915 48.9432L106.904 48.7979L106.779 47.9432H105.915V48.9432ZM105.778 48.9432V47.9432H105.149L104.877 48.5101L105.778 48.9432ZM100.051 55.1307V54.1307H99.207L99.0653 54.9629L100.051 55.1307ZM109.528 55.1307L110.514 55.2985L110.713 54.1307H109.528V55.1307ZM108.983 58.3352V59.3352H109.827L109.969 58.503L108.983 58.3352ZM99.5057 58.3352L98.5199 58.1674L98.3211 59.3352H99.5057V58.3352ZM99.5057 61H94.9716V63H99.5057V61ZM95.8648 62.4497L104.652 44.9951L102.865 44.0958L94.0784 61.5503L95.8648 62.4497ZM103.759 45.5455H109.375V43.5455H103.759V45.5455ZM108.389 44.7144L111.381 62.1689L113.352 61.8311L110.361 44.3765L108.389 44.7144ZM112.366 61H107.832V63H112.366V61ZM108.822 61.8547L106.904 48.7979L104.925 49.0885L106.843 62.1453L108.822 61.8547ZM105.915 47.9432H105.778V49.9432H105.915V47.9432ZM104.877 48.5101L98.6043 61.567L100.407 62.433L106.68 49.3762L104.877 48.5101ZM100.051 56.1307H109.528V54.1307H100.051V56.1307ZM108.543 54.9629L107.997 58.1674L109.969 58.503L110.514 55.2985L108.543 54.9629ZM108.983 57.3352H99.5057V59.3352H108.983V57.3352ZM100.492 58.503L101.037 55.2985L99.0653 54.9629L98.5199 58.1674L100.492 58.503ZM131.999 44.5455L132.985 44.7092L133.178 43.5455H131.999V44.5455ZM129.101 62V63H129.949L130.087 62.1638L129.101 62ZM125.521 62L124.635 62.4627L124.915 63H125.521V62ZM120.263 51.9261L121.149 51.4634L120.869 50.9261H120.263V51.9261ZM120.143 51.9261V50.9261H119.296L119.157 51.7617L120.143 51.9261ZM118.464 62V63H119.312L119.451 62.1644L118.464 62ZM114.246 62L113.259 61.8362L113.066 63H114.246V62ZM117.143 44.5455V43.5455H116.296L116.157 44.3817L117.143 44.5455ZM120.774 44.5455L121.662 44.085L121.382 43.5455H120.774V44.5455ZM125.99 54.6023L125.102 55.0627L125.382 55.6023H125.99V54.6023ZM126.135 54.6023V55.6023H126.984L127.122 54.7645L126.135 54.6023ZM127.788 44.5455V43.5455H126.939L126.802 44.3832L127.788 44.5455ZM131.012 44.3817L128.114 61.8362L130.087 62.1638L132.985 44.7092L131.012 44.3817ZM129.101 61H125.521V63H129.101V61ZM126.408 61.5373L121.149 51.4634L119.376 52.3889L124.635 62.4627L126.408 61.5373ZM120.263 50.9261H120.143V52.9261H120.263V50.9261ZM119.157 51.7617L117.478 61.8356L119.451 62.1644L121.13 52.0905L119.157 51.7617ZM118.464 61H114.246V63H118.464V61ZM115.232 62.1638L118.13 44.7092L116.157 44.3817L113.259 61.8362L115.232 62.1638ZM117.143 45.5455H120.774V43.5455H117.143V45.5455ZM119.886 45.0059L125.102 55.0627L126.878 54.1419L121.662 44.085L119.886 45.0059ZM125.99 55.6023H126.135V53.6023H125.99V55.6023ZM127.122 54.7645L128.775 44.7077L126.802 44.3832L125.148 54.44L127.122 54.7645ZM127.788 45.5455H131.999V43.5455H127.788V45.5455ZM133.501 47.9716L132.515 47.8048L132.317 48.9716H133.501V47.9716ZM134.08 44.5455V43.5455H133.235L133.094 44.3787L134.08 44.5455ZM148.833 44.5455L149.819 44.7122L150.016 43.5455H148.833V44.5455ZM148.254 47.9716V48.9716H149.099L149.24 48.1384L148.254 47.9716ZM142.961 47.9716V46.9716H142.113L141.974 47.8086L142.961 47.9716ZM140.643 62V63H141.491L141.629 62.163L140.643 62ZM136.484 62L135.497 61.837L135.305 63H136.484V62ZM138.802 47.9716L139.788 48.1346L139.981 46.9716H138.802V47.9716ZM134.487 48.1384L135.066 44.7122L133.094 44.3787L132.515 47.8048L134.487 48.1384ZM134.08 45.5455H148.833V43.5455H134.08V45.5455ZM147.847 44.3787L147.268 47.8048L149.24 48.1384L149.819 44.7122L147.847 44.3787ZM148.254 46.9716H142.961V48.9716H148.254V46.9716ZM141.974 47.8086L139.656 61.837L141.629 62.163L143.948 48.1346L141.974 47.8086ZM140.643 61H136.484V63H140.643V61ZM137.47 62.163L139.788 48.1346L137.815 47.8086L135.497 61.837L137.47 62.163ZM138.802 46.9716H133.501V48.9716H138.802V46.9716Z" fill="black"/>
</g>
<defs>
<filter id="filter0_dd_1_5" x="0.464485" y="44.3068" width="152.369" height="25.9148" filterUnits="userSpaceOnUse" color-interpolation-filters="sRGB">
<feFlood flood-opacity="0" result="BackgroundImageFix"/>
<feColorMatrix in="SourceAlpha" type="matrix" values="0 0 0 0 0 0 0 0 0 0 0 0 0 0 0 0 0 0 127 0" result="hardAlpha"/>
<feOffset dy="4"/>
<feGaussianBlur stdDeviation="2"/>
<feComposite in2="hardAlpha" operator="out"/>
<feColorMatrix type="matrix" values="0 0 0 0 0 0 0 0 0 0 0 0 0 0 0 0 0 0 0.25 0"/>
<feBlend mode="normal" in2="BackgroundImageFix" result="effect1_dropShadow_1_5"/>
<feColorMatrix in="SourceAlpha" type="matrix" values="0 0 0 0 0 0 0 0 0 0 0 0 0 0 0 0 0 0 127 0" result="hardAlpha"/>
<feOffset dy="4"/>
<feGaussianBlur stdDeviation="2"/>
<feComposite in2="hardAlpha" operator="out"/>
<feColorMatrix type="matrix" values="0 0 0 0 0 0 0 0 0 0 0 0 0 0 0 0 0 0 0.25 0"/>
<feBlend mode="normal" in2="effect1_dropShadow_1_5" result="effect2_dropShadow_1_5"/>
<feBlend mode="normal" in="SourceGraphic" in2="effect2_dropShadow_1_5" result="shape"/>
</filter>
</defs>
</svg>
